I Am Number Four (2011)(DivX)(PPVRip)(DD 2.0)(Nl subs) TBS

********Momenteel te zien in 47 bioscopen********
********Now in the Cinema******** 

Verenigde Staten
Actie / Science-Fiction
109 minuten

geregisseerd door D.J. Caruso
met Alex Pettyfer, Timothy Olyphant en Dianna Agron

Negen buitenaardse baby's met menselijke kenmerken vluchten van hun thuis planeet Lorien om zich te verschuilen op Aarde. Ze worden gevolgd door de Mogadorians die hun eigen planeet vernietigd hebben om de baby's op te sporen. De baby's hebben allemaal een eigen lijfwacht en ze zullen superkrachten krijgen wanneer ze ouder worden. Ze hebben allemaal een nummer van één tot negen en kunnen ook alleen in die volgorde vermoord worden. Number Four (Alex Pettyfer), ook John Smith genaamd, verhuist naar Paradise, Ohio en wordt vrienden met de vriendelijke fotograaf Sarah. Na zijn hele leven op de vlucht te zijn geweest is Number Four verliefd geworden en heeft hij iets om voor te vechten.

Storyline:

John is an extraordinary teen, masking his true identity and passing as a typical high school student to elude a deadly enemy seeking to destroy him. Three like him have already been killed ... he is Number Four. 


Info:
  
Source.............: I Am Number Four 2011 PPVRIP IFLIX
Audio..............: English DD 2.0
Subtitles.NL.......: Vertaald door Heksje & Suurtje Mooie Team!!!
Controle...........: Suurtje
Bewerking+Resync...: Suurtje, Klasse werk m8 thnx
AVI.......2 CDS....: Zelda
Cover..............: Yes
 
Format                           : AVI
Format/Info                      : Audio Video Interleave
File size                        : 817 MiB
Duration                         : 55mn 11s
Overall bit rate                 : 2 069 Kbps
Writing library                  : VirtualDub-MPEG2 build 18294/release

Video
ID                               : 0
Format                           : MPEG-4 Visual
Format profile                   : Advanced Simple@L5
Format settings, BVOP            : Yes
Format settings, QPel            : No
Format settings, GMC             : No warppoints
Format settings, Matrix          : Default (H.263)
Muxing mode                      : Packed bitstream
Codec ID                         : DX50
Codec ID/Hint                    : DivX 5
Duration                         : 55mn 11s
Bit rate                         : 1 865 Kbps
Width                            : 720 pixels
Height                           : 416 pixels
Display aspect ratio             : 16:9
Frame rate                       : 29.970 fps
Color space                      : YUV
Chroma subsampling               : 4:2:0
Bit depth                        : 8 bits
Scan type                        : Progressive
Bits/(Pixel*Frame)               : 0.208
Stream size                      : 736 MiB (90%)
Writing library                  : XviD 1.2.1 (UTC 2008-12-04)

Audio
ID                               : 1
Format                           : AC-3
Format/Info                      : Audio Coding 3
Mode extension                   : CM (complete main)
Codec ID                         : 2000
Duration                         : 55mn 11s
Bit rate mode                    : Constant
Bit rate                         : 192 Kbps
Channel(s)                       : 2 channels
Channel positions                : Front: L R
Sampling rate                    : 48.0 KHz
Bit depth                        : 16 bits
Stream size                      : 75.8 MiB (9%)
Alignment                        : Split accross interleaves
Interleave, duration             : 33 ms (1.00 video frame)
Interleave, preload duration     : 500 ms

 
http://www.imdb.com/title/tt1464540 
http://www.moviemeter.nl/film/70479